HIERARCHY
ROOT Root
{
  OFFSET 0.0 0.0 0.0
  CHANNELS 6 Xposition Yposition Zposition Zrotation Yrotation Xrotation
  JOINT Hips
  {
    OFFSET 0.0 100.0 0.0
    CHANNELS 6 Xposition Yposition Zposition Zrotation Yrotation Xrotation
    JOINT Spine1
    {
      OFFSET -0.013727 5.003763 -0.053727
      CHANNELS 3 Zrotation Yrotation Xrotation
      JOINT Spine2
      {
        OFFSET -0.0 7.125301 -0.029825
        CHANNELS 3 Zrotation Yrotation Xrotation
        JOINT Chest
        {
          OFFSET -1e-06 7.550063 -0.815971
          CHANNELS 3 Zrotation Yrotation Xrotation
          JOINT Neck1
          {
            OFFSET -0.181677 26.311295 -0.553348
            CHANNELS 3 Zrotation Yrotation Xrotation
            JOINT Neck2
            {
              OFFSET -3e-06 7.709397 2.302585
              CHANNELS 3 Zrotation Yrotation Xrotation
              JOINT Head
              {
                OFFSET -5e-06 6.128916 1.953709
                CHANNELS 3 Zrotation Yrotation Xrotation
                JOINT HeadEnd
                {
                  OFFSET 0.003598 16.065403 -1.835379
                  CHANNELS 3 Zrotation Yrotation Xrotation
                }
                JOINT Jaw
                {
                  OFFSET 0.002637 0.475592 3.094941
                  CHANNELS 3 Zrotation Yrotation Xrotation
                }
                JOINT LeftEye
                {
                  OFFSET 3.206381 5.380205 7.586883
                  CHANNELS 3 Zrotation Yrotation Xrotation
                }
                JOINT RightEye
                {
                  OFFSET -3.22244 5.361869 7.558234
                  CHANNELS 3 Zrotation Yrotation Xrotation
                }
              }
            }
          }
          JOINT LeftShoulder
          {
            OFFSET 1.621652 23.237164 5.113413
            CHANNELS 3 Zrotation Yrotation Xrotation
            JOINT LeftArm
            {
              OFFSET 14.919846 2e-06 -5.502326
              CHANNELS 3 Zrotation Yrotation Xrotation
              JOINT LeftForeArm
              {
                OFFSET 28.739307 0.0 -0.002588
                CHANNELS 3 Zrotation Yrotation Xrotation
                JOINT LeftHand
                {
                  OFFSET 27.093981 -1e-06 0.002609
                  CHANNELS 3 Zrotation Yrotation Xrotation
                  JOINT LeftHandThumb1
                  {
                    OFFSET 2.276482 -1.392045 3.191413
                    CHANNELS 3 Zrotation Yrotation Xrotation
                    JOINT LeftHandThumb2
                    {
                      OFFSET 4.012836 -1.828127 1.641654
                      CHANNELS 3 Zrotation Yrotation Xrotation
                      JOINT LeftHandThumb3
                      {
                        OFFSET 2.798515 0.0 -3e-06
                        CHANNELS 3 Zrotation Yrotation Xrotation
                        JOINT LeftHandThumbEnd
                        {
                          OFFSET 3.180793 -4e-06 4e-06
                          CHANNELS 3 Zrotation Yrotation Xrotation
                        }
                      }
                    }
                  }
                  JOINT LeftHandIndex1
                  {
                    OFFSET 3.247555 -0.531998 2.296169
                    CHANNELS 3 Zrotation Yrotation Xrotation
                    JOINT LeftHandIndex2
                    {
                      OFFSET 6.364578 0.01206 0.1786
                      CHANNELS 3 Zrotation Yrotation Xrotation
                      JOINT LeftHandIndex3
                      {
                        OFFSET 3.662364 0.0 0.0
                        CHANNELS 3 Zrotation Yrotation Xrotation
                        JOINT LeftHandIndex4
                        {
                          OFFSET 2.329242 4e-06 4e-06
                          CHANNELS 3 Zrotation Yrotation Xrotation
                          JOINT LeftHandIndexEnd
                          {
                            OFFSET 2.759615 -0.180537 -0.113024
                            CHANNELS 3 Zrotation Yrotation Xrotation
                          }
                        }
                      }
                    }
                  }
                  JOINT LeftHandMiddle1
                  {
                    OFFSET 3.163495 0.240981 1.000332
                    CHANNELS 3 Zrotation Yrotation Xrotation
                    JOINT LeftHandMiddle2
                    {
                      OFFSET 6.19078 -0.259278 -1.002548
                      CHANNELS 3 Zrotation Yrotation Xrotation
                      JOINT LeftHandMiddle3
                      {
                        OFFSET 4.35652 -4e-06 -1e-06
                        CHANNELS 3 Zrotation Yrotation Xrotation
                        JOINT LeftHandMiddle4
                        {
                          OFFSET 2.996877 -8e-06 0.0
                          CHANNELS 3 Zrotation Yrotation Xrotation
                          JOINT LeftHandMiddleEnd
                          {
                            OFFSET 2.304287 -0.294569 -0.031741
                            CHANNELS 3 Zrotation Yrotation Xrotation
                          }
                        }
                      }
                    }
                  }
                  JOINT LeftHandRing1
                  {
                    OFFSET 2.882643 -0.053652 -0.322543
                    CHANNELS 3 Zrotation Yrotation Xrotation
                    JOINT LeftHandRing2
                    {
                      OFFSET 5.854541 -0.486202 -1.373841
                      CHANNELS 3 Zrotation Yrotation Xrotation
                      JOINT LeftHandRing3
                      {
                        OFFSET 4.350578 0.0 3e-06
                        CHANNELS 3 Zrotation Yrotation Xrotation
                        JOINT LeftHandRing4
                        {
                          OFFSET 2.651321 7e-06 2e-06
                          CHANNELS 3 Zrotation Yrotation Xrotation
                          JOINT LeftHandRingEnd
                          {
                            OFFSET 1.936105 0.077687 -7.1e-05
                            CHANNELS 3 Zrotation Yrotation Xrotation
                          }
                        }
                      }
                    }
                  }
                  JOINT LeftHandPinky1
                  {
                    OFFSET 2.8655 -0.310005 -1.600378
                    CHANNELS 3 Zrotation Yrotation Xrotation
                    JOINT LeftHandPinky2
                    {
                      OFFSET 5.087849 -1.331141 -1.77123
                      CHANNELS 3 Zrotation Yrotation Xrotation
                      JOINT LeftHandPinky3
                      {
                        OFFSET 3.070974 4e-06 0.0
                        CHANNELS 3 Zrotation Yrotation Xrotation
                        JOINT LeftHandPinky4
                        {
                          OFFSET 1.549672 0.0 1e-06
                          CHANNELS 3 Zrotation Yrotation Xrotation
                          JOINT LeftHandPinkyEnd
                          {
                            OFFSET 1.944893 -0.157802 0.057219
                            CHANNELS 3 Zrotation Yrotation Xrotation
                          }
                        }
                      }
                    }
                  }
                }
              }
            }
          }
          JOINT RightShoulder
          {
            OFFSET -1.380118 23.180309 5.214158
            CHANNELS 3 Zrotation Yrotation Xrotation
            JOINT RightArm
            {
              OFFSET -15.037196 1.2e-05 -5.545604
              CHANNELS 3 Zrotation Yrotation Xrotation
              JOINT RightForeArm
              {
                OFFSET -28.736639 2e-06 -0.002597
                CHANNELS 3 Zrotation Yrotation Xrotation
                JOINT RightHand
                {
                  OFFSET -27.133619 -0.0 0.002613
                  CHANNELS 3 Zrotation Yrotation Xrotation
                  JOINT RightHandThumb1
                  {
                    OFFSET -2.274032 -1.383988 3.163127
                    CHANNELS 3 Zrotation Yrotation Xrotation
                    JOINT RightHandThumb2
                    {
                      OFFSET -4.011429 -1.827466 1.640914
                      CHANNELS 3 Zrotation Yrotation Xrotation
                      JOINT RightHandThumb3
                      {
                        OFFSET -2.794935 -4e-06 -3e-06
                        CHANNELS 3 Zrotation Yrotation Xrotation
                        JOINT RightHandThumbEnd
                        {
                          OFFSET -3.183852 4e-06 1e-06
                          CHANNELS 3 Zrotation Yrotation Xrotation
                        }
                      }
                    }
                  }
                  JOINT RightHandIndex1
                  {
                    OFFSET -3.253266 -0.520057 2.282866
                    CHANNELS 3 Zrotation Yrotation Xrotation
                    JOINT RightHandIndex2
                    {
                      OFFSET -6.341917 0.012471 0.178266
                      CHANNELS 3 Zrotation Yrotation Xrotation
                      JOINT RightHandIndex3
                      {
                        OFFSET -3.654871 -8e-06 -0.0
                        CHANNELS 3 Zrotation Yrotation Xrotation
                        JOINT RightHandIndex4
                        {
                          OFFSET -2.327586 0.0 1e-06
                          CHANNELS 3 Zrotation Yrotation Xrotation
                          JOINT RightHandIndexEnd
                          {
                            OFFSET -2.76179 -0.180656 -0.113078
                            CHANNELS 3 Zrotation Yrotation Xrotation
                          }
                        }
                      }
                    }
                  }
                  JOINT RightHandMiddle1
                  {
                    OFFSET -3.168106 0.246593 1.00103
                    CHANNELS 3 Zrotation Yrotation Xrotation
                    JOINT RightHandMiddle2
                    {
                      OFFSET -6.180828 -0.258836 -1.000895
                      CHANNELS 3 Zrotation Yrotation Xrotation
                      JOINT RightHandMiddle3
                      {
                        OFFSET -4.348901 0.0 -0.0
                        CHANNELS 3 Zrotation Yrotation Xrotation
                        JOINT RightHandMiddle4
                        {
                          OFFSET -3.00024 -4e-06 -2e-06
                          CHANNELS 3 Zrotation Yrotation Xrotation
                          JOINT RightHandMiddleEnd
                          {
                            OFFSET -2.30252 -0.29437 -0.031706
                            CHANNELS 3 Zrotation Yrotation Xrotation
                          }
                        }
                      }
                    }
                  }
                  JOINT RightHandRing1
                  {
                    OFFSET -2.88569 -0.067952 -0.308858
                    CHANNELS 3 Zrotation Yrotation Xrotation
                    JOINT RightHandRing2
                    {
                      OFFSET -5.854198 -0.48613 -1.373731
                      CHANNELS 3 Zrotation Yrotation Xrotation
                      JOINT RightHandRing3
                      {
                        OFFSET -4.33881 -4e-06 -0.0
                        CHANNELS 3 Zrotation Yrotation Xrotation
                        JOINT RightHandRing4
                        {
                          OFFSET -2.654903 -4e-06 4e-06
                          CHANNELS 3 Zrotation Yrotation Xrotation
                          JOINT RightHandRingEnd
                          {
                            OFFSET -1.933568 0.077527 -5.2e-05
                            CHANNELS 3 Zrotation Yrotation Xrotation
                          }
                        }
                      }
                    }
                  }
                  JOINT RightHandPinky1
                  {
                    OFFSET -2.866425 -0.342796 -1.584145
                    CHANNELS 3 Zrotation Yrotation Xrotation
                    JOINT RightHandPinky2
                    {
                      OFFSET -5.091371 -1.332055 -1.772385
                      CHANNELS 3 Zrotation Yrotation Xrotation
                      JOINT RightHandPinky3
                      {
                        OFFSET -3.062664 -4e-06 1e-06
                        CHANNELS 3 Zrotation Yrotation Xrotation
                        JOINT RightHandPinky4
                        {
                          OFFSET -1.546529 4e-06 -2e-06
                          CHANNELS 3 Zrotation Yrotation Xrotation
                          JOINT RightHandPinkyEnd
                          {
                            OFFSET -1.945119 -0.157718 0.057211
                            CHANNELS 3 Zrotation Yrotation Xrotation
                          }
                        }
                      }
                    }
                  }
                }
              }
            }
          }
        }
      }
    }
    JOINT LeftLeg
    {
      OFFSET 10.043214 -8.434526 2.595655
      CHANNELS 3 Zrotation Yrotation Xrotation
      JOINT LeftShin
      {
        OFFSET -1e-06 -43.221752 -0.802913
        CHANNELS 3 Zrotation Yrotation Xrotation
        JOINT LeftFoot
        {
          OFFSET 1e-06 -42.155094 -3.481523
          CHANNELS 3 Zrotation Yrotation Xrotation
          JOINT LeftToeBase
          {
            OFFSET 0.0 -5.059472 13.231529
            CHANNELS 3 Zrotation Yrotation Xrotation
            JOINT LeftToeEnd
            {
              OFFSET -0.009607 -1.647619 6.513017
              CHANNELS 3 Zrotation Yrotation Xrotation
            }
          }
        }
      }
    }
    JOINT RightLeg
    {
      OFFSET -10.047278 -8.29526 2.620317
      CHANNELS 3 Zrotation Yrotation Xrotation
      JOINT RightShin
      {
        OFFSET 1e-06 -43.362206 -0.805556
        CHANNELS 3 Zrotation Yrotation Xrotation
        JOINT RightFoot
        {
          OFFSET 2e-06 -42.117393 -3.478398
          CHANNELS 3 Zrotation Yrotation Xrotation
          JOINT RightToeBase
          {
            OFFSET -0.0 -5.079609 13.284196
            CHANNELS 3 Zrotation Yrotation Xrotation
            JOINT RightToeEnd
            {
              OFFSET 0.009532 -1.634378 6.460591
              CHANNELS 3 Zrotation Yrotation Xrotation
            }
          }
        }
      }
    }
  }
}
MOTION
Frames: 4
Frame Time: 0.03333333333333333
-4.039834 0.0 0.342647 0.0 -2.532403 0.0 0.0 100.605896 0.0 -0.214713 0.007798 3.014083 2.413382 -0.737161 -3.30304 0.224025 -3.531311 -5.85632 5.075942 -5.562008 12.473248 9.616509 -0.03833 -1.925011 -0.786729 -0.216829 -3.589217 -3.645665 -0.178991 -5.636759 0.000475 0.00336 0.0 0.002918 0.18141 -0.048293 0.728733 -3.577682 -10.642511 -0.728178 3.931066 -10.608688 -9.927523 -8.494329 14.010712 -62.169502 -23.280447 20.610699 -179.223404 -73.650795 179.683197 20.587664 9.527679 9.638715 -5.877809 9.852803 0.644705 -10.957177 -0.356828 7.143963 -0.017061 8.759768 -0.011394 -15.508578 18.469061 6.124094 -1.836465 2.490195 -2.504019 -10.158551 4.66954 4.627087 -20.94422 0.017449 0.005654 -21.190699 2.471582 -3.585109 0.002099 0.000609 0.001775 -1.366564 2.233015 -0.7313 -21.318476 0.582434 3.020753 -13.806828 0.002487 5.3e-05 -23.872332 -0.241353 -0.843152 -59.55891 3.003749 -1.273202 -0.284062 1.668796 0.844279 -14.221067 0.093824 1.30098 -34.180141 -0.275127 0.97959 -20.019861 0.969074 1.215276 0.001218 -0.004699 0.001536 -3.431791 0.777219 0.531953 -15.90842 -3.166736 2.996869 -6.349613 -0.009247 0.002462 -18.090803 3.644213 -4.896779 0.002956 0.002401 -0.007663 17.824356 5.024406 12.267301 53.527634 8.973883 32.044739 -0.164205 14.432607 0.059301 0.475362 -1.99885 -23.843559 2.255308 -5.234301 -3.219229 14.278113 -0.83498 6.93932 -0.004062 -12.696271 -0.003552 16.446711 -17.903673 2.208616 1.666537 -1.95552 -2.882262 4.732156 -4.177547 5.002952 11.034058 -0.002892 0.003962 12.141715 -3.746557 -2.86734 0.000367 -9.3e-05 -0.001703 1.294948 -1.93616 -1.484311 14.811599 0.570671 3.865155 14.256934 -1.341936 -6.657013 19.66165 0.143087 -0.64484 49.199905 -0.86784 -6.593032 0.354954 -1.523466 -0.024131 20.243832 3.699741 2.321743 18.798466 0.001946 0.001938 10.76087 -0.477676 1.40567 -0.009725 0.000149 -0.002665 3.289386 0.288559 -0.57231 21.499279 11.849882 2.28068 8.167809 0.006008 0.003486 18.420263 -3.798071 -4.952185 -6.4e-05 -0.000778 0.003342 4.255698 20.273216 -1.275378 -0.161301 -0.396639 2.711598 -8.295303 -1.719219 -2.415843 1.642154 -1.836035 -0.099184 0.000586 -0.000532 -0.000783 -2.610805 -2.019937 -2.969445 -0.01891 0.107023 2.601796 6.502292 -2.475038 -2.819697 -1.421311 1.083116 -0.529952 0.000125 -0.000314 -0.003701 
-4.277645 0.0 0.269068 0.0 -2.553838 0.0 0.0 100.608849 0.0 -0.367264 0.015175 2.85805 2.430675 -0.669317 -3.343158 0.216412 -3.252909 -5.865642 4.703732 -5.252661 12.40091 7.774779 0.589231 -1.918289 -0.7101 0.274192 -3.551175 -3.804713 0.578692 -6.05302 0.005854 -0.003257 0.000678 0.010003 0.184105 -0.038259 0.733262 -3.56248 -10.563826 -0.711698 3.913626 -10.548497 -11.113646 -7.752785 14.094244 -60.353806 -19.377533 18.196674 -179.297806 -70.766907 179.794403 19.067854 9.18814 8.179208 -5.89404 9.896196 0.684102 -10.95261 -0.387094 7.14559 0.002957 8.781044 -0.001717 -15.557194 18.455921 6.012663 -1.826974 2.504879 -2.502709 -10.165812 4.660796 4.630506 -20.951571 0.002498 0.015799 -21.206781 2.451376 -3.571154 -0.001586 -0.006465 -0.001799 -1.355994 2.217879 -0.735009 -21.306362 0.594561 3.008056 -13.788688 -0.003508 0.005937 -23.812286 -0.23534 -0.82185 -59.501133 3.030261 -1.304044 -0.277683 1.655209 0.843696 -14.198463 0.114486 1.298107 -34.162865 -0.270663 0.976712 -20.00716 0.976918 1.217135 -0.000727 5.8e-05 0.00493 -3.415123 0.752927 0.515984 -15.920871 -3.137485 2.974414 -6.337027 0.004027 0.017771 -18.098001 3.662889 -4.886998 -0.006063 -0.007752 -0.006816 17.719549 5.076199 12.245264 54.000069 9.322845 32.282398 -0.155229 14.72113 0.076124 0.112851 -2.236566 -23.695976 2.222158 -5.274426 -3.198069 14.28398 -0.800264 6.925895 0.002802 -12.686608 0.004514 16.463593 -17.74959 2.182418 1.667646 -1.956961 -2.880235 4.727516 -4.166504 4.989715 11.018695 0.00139 0.00333 12.107765 -3.72494 -2.873486 -0.004025 -0.00261 0.000515 1.291122 -1.919064 -1.493086 14.785618 0.562192 3.858388 14.230124 -1.337207 -6.658626 19.591978 0.147641 -0.644136 49.024464 -0.799942 -6.498731 0.352043 -1.497735 -0.032682 20.213257 3.670832 2.312754 18.789989 0.00538 -0.00064 10.75911 -0.475131 1.395219 -0.000935 -0.000244 0.001281 3.263609 0.329194 -0.578018 21.48687 11.791264 2.262081 8.150513 0.00504 -0.006035 18.362488 -3.789316 -4.941803 0.003277 -0.001225 0.000532 4.593909 20.337717 -1.055076 -0.14996 -0.38941 2.583594 -8.315583 -1.62425 -2.147632 1.648228 -1.858715 -0.041559 -0.000425 0.000765 0.005552 -2.305745 -1.80831 -2.701338 -0.029714 0.108726 2.354538 6.378281 -2.599545 -2.66382 -1.424841 1.089422 -0.50837 0.000554 -0.000709 0.00316 
-4.482525 0.0 0.231719 0.0 -2.576595 0.0 0.0 100.61673 0.0 -0.477368 0.019307 2.637475 2.473755 -0.569369 -3.371823 0.217527 -2.946106 -5.919737 4.250603 -4.875905 12.411292 5.810879 1.262068 -1.894443 -0.619836 0.838075 -3.536172 -3.933542 1.322198 -6.405253 -4.9e-05 0.00104 0.000448 0.003815 0.172681 -0.032737 0.733802 -3.566342 -10.524645 -0.731192 3.895361 -10.513713 -12.403288 -7.206276 14.179264 -58.408588 -14.974076 15.078206 -179.588684 -68.34549 179.842331 17.881704 8.768905 6.085896 -5.87005 9.795444 0.682432 -10.936409 -0.380796 7.128542 -0.014821 8.777178 -0.015122 -15.752556 18.400002 5.848452 -1.846029 2.494639 -2.507478 -10.175489 4.693939 4.60229 -21.018099 0.004208 -0.008064 -21.282976 2.459695 -3.616243 -0.000633 -0.000138 -0.00129 -1.369186 2.260272 -0.750507 -21.360723 0.577577 3.017676 -13.827183 -0.002497 -0.011448 -23.903481 -0.246359 -0.83881 -59.864758 2.916398 -1.408987 -0.303448 1.703126 0.817282 -14.226089 0.08124 1.321974 -34.234741 -0.292774 0.949602 -20.055302 0.95208 1.215021 -0.001232 0.000582 -0.004908 -3.46762 0.828195 0.480867 -15.926634 -3.199915 3.011692 -6.340949 0.002077 0.004907 -18.158802 3.659229 -4.929076 0.013868 0.005089 -0.000396 17.202766 5.339141 12.92659 54.931561 9.63772 32.734852 -0.123215 15.524549 0.089843 -0.229586 -2.32896 -23.841885 2.247598 -5.18908 -3.043929 14.251658 -0.862395 7.015376 0.002331 -12.720972 0.007461 16.503622 -17.629227 2.170086 1.670374 -1.958114 -2.886499 4.737537 -4.178122 4.982691 11.046804 0.000327 -0.003773 12.164894 -3.729186 -2.88238 -0.00097 -0.002572 -0.003164 1.296314 -1.941475 -1.510102 14.827029 0.579527 3.863796 14.279497 -1.339284 -6.669932 19.679821 0.139683 -0.656448 49.259521 -0.701788 -6.462589 0.359167 -1.528546 -0.042418 20.253323 3.705841 2.315799 18.834623 0.00659 -0.001303 10.757145 -0.478892 1.407904 0.00863 0.001011 0.004301 3.301468 0.28431 -0.610958 21.495768 11.852977 2.268737 8.188793 0.007115 0.004823 18.41622 -3.788968 -4.947012 -0.002881 0.000569 -0.001385 4.912225 20.416321 -0.733724 -0.129715 -0.383433 2.395565 -8.278463 -1.547024 -2.249433 1.653202 -1.886718 -0.021254 -0.000509 -0.001261 0.00112 -2.054743 -1.628292 -2.350268 -0.027461 0.092623 2.047267 6.265876 -2.708812 -2.518677 -1.429257 1.096531 -0.454342 0.000593 -0.001056 -0.004414 
-4.640737 0.0 0.214577 0.0 -2.576639 0.0 0.0 100.616013 0.0 -0.595428 0.022873 2.410186 2.528263 -0.495395 -3.404783 0.22012 -2.531395 -5.94554 3.752958 -4.43034 12.395363 3.845431 1.889074 -1.867596 -0.527809 1.399687 -3.523758 -4.019801 2.015642 -6.483107 -0.000153 -0.000417 -8e-06 0.005072 0.137148 -0.040835 0.736583 -3.59558 -10.509755 -0.731964 3.864046 -10.493577 -13.97126 -6.089292 14.194457 -56.731373 -10.525135 11.559489 179.929886 -67.320168 -179.91835 17.258692 8.213848 3.307212 -5.883134 9.803895 0.743374 -10.934181 -0.365958 7.161433 0.011516 8.777108 -0.004695 -16.028065 18.198479 5.727926 -1.851026 2.503822 -2.509345 -10.189953 4.690985 4.609765 -20.971092 0.015806 0.001317 -21.277176 2.455634 -3.615124 -0.003754 0.000318 -0.001038 -1.368021 2.257606 -0.750494 -21.375187 0.579809 3.009387 -13.803578 8.6e-05 0.003261 -23.897249 -0.243686 -0.854505 -60.105419 2.827363 -1.474853 -0.309121 1.708341 0.826532 -14.237109 0.068846 1.319421 -34.24342 -0.291421 0.962399 -20.041782 0.963792 1.216502 0.000894 -0.011875 0.00349 -3.469212 0.819885 0.48996 -15.93888 -3.182833 3.023803 -6.340312 -0.010195 -0.008254 -18.11866 3.642663 -4.91737 0.002365 0.000521 -0.005649 16.778009 5.454681 12.860963 55.661938 9.808332 33.064632 -0.129545 16.540163 0.038882 -0.22538 -2.251174 -23.927851 2.232993 -5.186897 -3.100923 14.277768 -0.852465 6.978473 0.000772 -12.706685 -0.0027 16.516241 -17.591606 2.148704 1.666089 -1.955898 -2.883029 4.727519 -4.179859 4.990818 11.023063 0.001175 -0.002174 12.114553 -3.732546 -2.880423 -0.000275 -0.003045 0.001795 1.290389 -1.937355 -1.494019 14.791793 0.571434 3.858136 14.239776 -1.3457 -6.663724 19.653149 0.143624 -0.652939 49.123936 -0.564395 -6.421664 0.353174 -1.530964 -0.038136 20.222887 3.698377 2.330332 18.783163 0.005016 -0.006702 10.750274 -0.490303 1.414209 3e-06 0.000628 -0.002101 3.268027 0.283357 -0.583739 21.48984 11.859126 2.277127 8.159225 0.001183 -0.002718 18.356644 -3.797791 -4.927726 0.011352 -0.001315 -0.000503 5.227098 20.406269 -0.359276 -0.11452 -0.362536 2.16697 -8.269086 -1.520488 -2.129724 1.656913 -1.915526 -0.042021 -0.001237 0.003386 0.000499 -1.84426 -1.541906 -1.983058 -0.010979 0.101144 1.806626 6.157429 -2.801557 -2.388413 -1.42688 1.084701 -0.396796 -0.000238 0.002447 -0.004433 
